<svg width="44" height="44" viewBox="0 0 44 44" fill="none" xmlns="http://www.w3.org/2000/svg">
<path fill-rule="evenodd" clip-rule="evenodd" d="M5.19562 5.19269C5.64102 4.74729 6.24511 4.49707 6.875 4.49707H23.375C24.0049 4.49707 24.609 4.74729 25.0544 5.19269C25.4998 5.63809 25.75 6.24218 25.75 6.87207V15.4971H37.125C37.7549 15.4971 38.359 15.7473 38.8044 16.1927C39.2498 16.6381 39.5 17.2422 39.5 17.8721V38.4971C39.5 39.0494 39.0523 39.4971 38.5 39.4971C37.9477 39.4971 37.5 39.0494 37.5 38.4971V17.8721C37.5 17.7726 37.4605 17.6772 37.3902 17.6069C37.3198 17.5366 37.2245 17.4971 37.125 17.4971H25.75V38.4971C25.75 39.0494 25.3023 39.4971 24.75 39.4971C24.1977 39.4971 23.75 39.0494 23.75 38.4971V6.87207C23.75 6.77261 23.7105 6.67723 23.6402 6.60691C23.5698 6.53658 23.4745 6.49707 23.375 6.49707H6.875C6.77554 6.49707 6.68016 6.53658 6.60983 6.60691C6.53951 6.67723 6.5 6.77261 6.5 6.87207V38.4971C6.5 39.0494 6.05228 39.4971 5.5 39.4971C4.94772 39.4971 4.5 39.0494 4.5 38.4971V6.87207C4.5 6.24218 4.75022 5.63809 5.19562 5.19269ZM10 12.3721C10 11.8198 10.4477 11.3721 11 11.3721H16.5C17.0523 11.3721 17.5 11.8198 17.5 12.3721C17.5 12.9244 17.0523 13.3721 16.5 13.3721H11C10.4477 13.3721 10 12.9244 10 12.3721ZM29.25 23.3721C29.25 22.8198 29.6977 22.3721 30.25 22.3721H33C33.5523 22.3721 34 22.8198 34 23.3721C34 23.9244 33.5523 24.3721 33 24.3721H30.25C29.6977 24.3721 29.25 23.9244 29.25 23.3721ZM12.75 26.1221C12.75 25.5698 13.1977 25.1221 13.75 25.1221H19.25C19.8023 25.1221 20.25 25.5698 20.25 26.1221C20.25 26.6744 19.8023 27.1221 19.25 27.1221H13.75C13.1977 27.1221 12.75 26.6744 12.75 26.1221ZM29.25 30.2471C29.25 29.6948 29.6977 29.2471 30.25 29.2471H33C33.5523 29.2471 34 29.6948 34 30.2471C34 30.7994 33.5523 31.2471 33 31.2471H30.25C29.6977 31.2471 29.25 30.7994 29.25 30.2471ZM10 32.9971C10 32.4448 10.4477 31.9971 11 31.9971H16.5C17.0523 31.9971 17.5 32.4448 17.5 32.9971C17.5 33.5494 17.0523 33.9971 16.5 33.9971H11C10.4477 33.9971 10 33.5494 10 32.9971Z" fill="url(#paint0_radial_519_10440)"/>
<defs>
<radialGradient id="paint0_radial_519_10440" cx="0" cy="0" r="1" gradientUnits="userSpaceOnUse" gradientTransform="translate(34.4832 11.3107) scale(32.0662 31.8261)">
<stop stop-color="#9AD800"/>
<stop offset="0.14" stop-color="#8BD000"/>
<stop offset="0.41" stop-color="#65BB00"/>
<stop offset="0.77" stop-color="#299A00"/>
<stop offset="1" stop-color="#008400"/>
</radialGradient>
</defs>
</svg>
