<svg width="44" height="44" viewBox="0 0 44 44" fill="none" xmlns="http://www.w3.org/2000/svg">
<path fill-rule="evenodd" clip-rule="evenodd" d="M32.2929 4.79289C32.6834 4.40237 33.3166 4.40237 33.7071 4.79289L39.2071 10.2929C39.5976 10.6834 39.5976 11.3166 39.2071 11.7071L22.7071 28.2071C22.5196 28.3946 22.2652 28.5 22 28.5H16.5C15.9477 28.5 15.5 28.0523 15.5 27.5V22C15.5 21.7348 15.6054 21.4804 15.7929 21.2929L28.1674 8.91839C28.1672 8.91856 28.1676 8.91822 28.1674 8.91839C28.1676 8.91823 28.1682 8.91756 28.1684 8.9174L32.2929 4.79289ZM28.875 11.0392L17.5 22.4142V26.5H21.5858L32.9608 15.125L28.875 11.0392ZM34.375 13.7108L30.2892 9.625L33 6.91421L37.0858 11L34.375 13.7108ZM8.25 7.875C8.15054 7.875 8.05516 7.91451 7.98484 7.98484C7.91451 8.05516 7.875 8.15054 7.875 8.25V35.75C7.875 35.8495 7.91451 35.9448 7.98484 36.0152C8.05516 36.0855 8.15054 36.125 8.25 36.125H35.75C35.8495 36.125 35.9448 36.0855 36.0152 36.0152C36.0855 35.9448 36.125 35.8495 36.125 35.75V20.625C36.125 20.0727 36.5727 19.625 37.125 19.625C37.6773 19.625 38.125 20.0727 38.125 20.625V35.75C38.125 36.3799 37.8748 36.984 37.4294 37.4294C36.984 37.8748 36.3799 38.125 35.75 38.125H8.25C7.62011 38.125 7.01602 37.8748 6.57062 37.4294C6.12522 36.984 5.875 36.3799 5.875 35.75V8.25C5.875 7.62011 6.12522 7.01602 6.57062 6.57062C7.01602 6.12522 7.62011 5.875 8.25 5.875H23.375C23.9273 5.875 24.375 6.32272 24.375 6.875C24.375 7.42728 23.9273 7.875 23.375 7.875H8.25Z" fill="url(#paint0_radial_519_10432)"/>
<defs>
<radialGradient id="paint0_radial_519_10432" cx="0" cy="0" r="1" gradientUnits="userSpaceOnUse" gradientTransform="translate(34.6803 11.046) scale(30.8065 30.5758)">
<stop stop-color="#9AD800"/>
<stop offset="0.14" stop-color="#8BD000"/>
<stop offset="0.41" stop-color="#65BB00"/>
<stop offset="0.77" stop-color="#299A00"/>
<stop offset="1" stop-color="#008400"/>
</radialGradient>
</defs>
</svg>
