<svg width="44" height="44" viewBox="0 0 44 44" fill="none" xmlns="http://www.w3.org/2000/svg">
<path fill-rule="evenodd" clip-rule="evenodd" d="M4.125 12C4.02554 12 3.93016 12.0395 3.85983 12.1098C3.78951 12.1802 3.75 12.2755 3.75 12.375V23.75H29.25V12H4.125ZM31.25 12.75V11C31.25 10.4477 30.8023 10 30.25 10H4.125C3.49511 10 2.89102 10.2502 2.44562 10.6956C2.00022 11.141 1.75 11.7451 1.75 12.375V31.625C1.75 32.2549 2.00022 32.859 2.44562 33.3044C2.89102 33.7498 3.49511 34 4.125 34H6.66001C7.12515 36.3517 9.19924 38.125 11.6875 38.125C14.1758 38.125 16.2498 36.3517 16.715 34H27.285C27.7502 36.3517 29.8242 38.125 32.3125 38.125C34.8008 38.125 36.8748 36.3517 37.34 34H39.875C40.5049 34 41.109 33.7498 41.5544 33.3044C41.9998 32.859 42.25 32.2549 42.25 31.625V20.625C42.25 20.4978 42.2257 20.3717 42.1785 20.2536L39.7742 14.2429C39.5979 13.8022 39.2936 13.4245 38.9006 13.1583C38.5075 12.8922 38.0437 12.75 37.5691 12.75H31.25ZM31.25 14.75V19.625H39.773L37.9173 14.9857C37.8894 14.9161 37.8414 14.8565 37.7793 14.8145C37.7173 14.7725 37.644 14.75 37.5691 14.75H31.25ZM40.25 21.625H31.25V27.9853C31.5928 27.913 31.9482 27.875 32.3125 27.875C34.8008 27.875 36.8748 29.6483 37.34 32H39.875C39.9745 32 40.0698 31.9605 40.1402 31.8902C40.2105 31.8198 40.25 31.7245 40.25 31.625V21.625ZM29.25 28.8903V25.75H3.75V31.625C3.75 31.7245 3.78951 31.8198 3.85983 31.8902C3.93016 31.9605 4.02554 32 4.125 32H6.66001C7.12515 29.6483 9.19924 27.875 11.6875 27.875C14.1758 27.875 16.2498 29.6483 16.715 32H27.285C27.5355 30.7334 28.2527 29.6346 29.25 28.8903ZM11.6875 29.875C9.96161 29.875 8.5625 31.2741 8.5625 33C8.5625 34.7259 9.96161 36.125 11.6875 36.125C13.4134 36.125 14.8125 34.7259 14.8125 33C14.8125 31.2741 13.4134 29.875 11.6875 29.875ZM30.7229 30.3089C29.8038 30.853 29.1875 31.8545 29.1875 33C29.1875 34.7259 30.5866 36.125 32.3125 36.125C34.0384 36.125 35.4375 34.7259 35.4375 33C35.4375 31.2741 34.0384 29.875 32.3125 29.875C31.7543 29.875 31.2303 30.0213 30.7768 30.2778C30.7592 30.2887 30.7412 30.2991 30.7229 30.3089Z" fill="url(#paint0_radial_519_10449)"/>
<defs>
<radialGradient id="paint0_radial_519_10449" cx="0" cy="0" r="1" gradientUnits="userSpaceOnUse" gradientTransform="translate(36.4449 15.4752) scale(37.1052 25.5746)">
<stop stop-color="#9AD800"/>
<stop offset="0.14" stop-color="#8BD000"/>
<stop offset="0.41" stop-color="#65BB00"/>
<stop offset="0.77" stop-color="#299A00"/>
<stop offset="1" stop-color="#008400"/>
</radialGradient>
</defs>
</svg>
