<svg width="44" height="44" viewBox="0 0 44 44" fill="none" xmlns="http://www.w3.org/2000/svg">
<path fill-rule="evenodd" clip-rule="evenodd" d="M29.9476 6.80312C28.4432 6.42352 26.8641 6.39719 25.3359 6.73605C23.3046 7.18644 21.4644 8.25892 20.0712 9.80418C18.678 11.3495 17.8013 13.2906 17.5631 15.3575C17.3248 17.4243 17.7371 19.5139 18.7422 21.3357C18.9705 21.7495 18.8779 22.2666 18.5203 22.5755L7.38997 32.1895C6.81954 32.7732 6.49977 33.5574 6.5 34.3745C6.50024 35.203 6.82946 35.9975 7.41529 36.5833C8.00112 37.1691 8.79562 37.4984 9.62411 37.4986C10.4412 37.4988 11.2254 37.1791 11.8091 36.6086L21.423 25.4786C21.7319 25.1209 22.249 25.0284 22.6628 25.2567C24.4845 26.2617 26.5742 26.6738 28.6411 26.4355C30.708 26.1973 32.6492 25.3206 34.1944 23.9274C35.7397 22.5342 36.8122 20.694 37.2626 18.6627C37.6014 17.1345 37.5751 15.5554 37.1955 14.051L31.1223 20.1242C30.8858 20.3606 30.5469 20.4632 30.219 20.3977L25.3577 19.4254C24.9618 19.3462 24.6524 19.0368 24.5732 18.6409L23.6009 13.7796C23.5354 13.4517 23.638 13.1128 23.8744 12.8763L29.9476 6.80312ZM24.9029 4.78348C27.3404 4.243 29.8853 4.47674 32.1838 5.45047C32.49 5.58019 32.7117 5.85366 32.7753 6.18009C32.8389 6.50652 32.736 6.8432 32.5008 7.07836L25.6671 13.9121L26.4036 17.595L30.0865 18.3315L36.9202 11.4978C37.1554 11.2626 37.4921 11.1597 37.8185 11.2233C38.1449 11.2869 38.4184 11.5086 38.5481 11.8148C39.5219 14.1133 39.7556 16.6582 39.2151 19.0957C38.6747 21.533 37.3878 23.7412 35.5336 25.4128C33.6795 27.0845 31.3502 28.1365 28.8701 28.4224C26.6614 28.677 24.4308 28.3126 22.4251 27.378L13.2969 37.9458C13.2809 37.9643 13.2642 37.9823 13.2469 37.9996C12.2855 38.9598 10.9823 39.499 9.62354 39.4986C8.26481 39.4982 6.96185 38.9583 6.00108 37.9975C5.04031 37.0368 4.50039 35.7338 4.5 34.3751C4.49961 33.0163 5.0388 31.7131 5.99902 30.7517C6.01634 30.7344 6.0343 30.7177 6.05285 30.7017L16.6209 21.5734C15.6862 19.5677 15.3216 17.3373 15.5762 15.1285C15.8621 12.6484 16.9141 10.3192 18.5858 8.46497C20.2574 6.61078 22.4656 5.32391 24.9029 4.78348Z" fill="url(#paint0_radial_519_10457)"/>
<defs>
<radialGradient id="paint0_radial_519_10457" cx="0" cy="0" r="1" gradientUnits="userSpaceOnUse" gradientTransform="translate(34.4829 11.3126) scale(32.0658 31.8257)">
<stop stop-color="#9AD800"/>
<stop offset="0.14" stop-color="#8BD000"/>
<stop offset="0.41" stop-color="#65BB00"/>
<stop offset="0.77" stop-color="#299A00"/>
<stop offset="1" stop-color="#008400"/>
</radialGradient>
</defs>
</svg>
