<svg width="24" height="24" viewBox="0 0 24 24" fill="none" xmlns="http://www.w3.org/2000/svg">
<path fill-rule="evenodd" clip-rule="evenodd" d="M22.7303 4.88857C23.1015 5.25969 23.369 5.72148 23.5063 6.22804C24 8.10519 24 12 24 12C24 12 24 15.8949 23.5063 17.772C23.369 18.2786 23.1015 18.7404 22.7303 19.1115C22.3592 19.4826 21.8974 19.7502 21.3909 19.8875C19.512 20.3829 12 20.3829 12 20.3829C12 20.3829 4.488 20.3829 2.60914 19.8875C1.58229 19.6115 0.771429 18.8006 0.493714 17.772C0 15.9138 0 12 0 12C0 12 0 8.10519 0.493714 6.22804C0.771429 5.19947 1.58057 4.38862 2.60914 4.11262C4.488 3.61719 12 3.61719 12 3.61719C12 3.61719 19.512 3.61719 21.3909 4.11262C21.8974 4.24993 22.3592 4.51745 22.7303 4.88857ZM15.8367 12.0205L9.58984 15.617V8.40332L15.8367 12.0205Z" fill="#FF0000"/>
</svg>
