<?xml version="1.0" standalone="no"?>
<!DOCTYPE svg PUBLIC "-//W3C//DTD SVG 20010904//EN"
 "http://www.w3.org/TR/2001/REC-SVG-20010904/DTD/svg10.dtd">
<svg version="1.0" xmlns="http://www.w3.org/2000/svg"
 width="260.000000pt" height="260.000000pt" viewBox="0 0 260.000000 260.000000"
 preserveAspectRatio="xMidYMid meet">
<metadata>
Created by potrace 1.14, written by Peter Selinger 2001-2017
</metadata>
<g transform="translate(0.000000,260.000000) scale(0.100000,-0.100000)"
fill="#000000" stroke="none">
<path d="M830 2340 c-212 -143 -392 -264 -400 -270 -8 -6 -107 -72 -220 -148
l-205 -137 0 -807 c0 -530 3 -809 10 -812 6 -2 552 -3 1215 -2 l1205 1 0 811
1 810 -349 235 c-192 129 -356 239 -365 244 -50 31 -107 71 -110 78 -2 4 -8 7
-13 7 -5 0 -27 12 -48 28 -56 39 -97 67 -160 107 -9 6 -51 34 -93 63 -42 28
-78 52 -80 51 -2 0 -176 -117 -388 -259z"/>
</g>
</svg>
