<svg width="108" height="108" viewBox="0 0 108 108" fill="none" xmlns="http://www.w3.org/2000/svg">
<path fill-rule="evenodd" clip-rule="evenodd" d="M33.75 16.875C33.75 15.011 35.261 13.5 37.125 13.5H62.4375C69.1508 13.5 75.5891 16.1668 80.3361 20.9139C85.0832 25.6609 87.75 32.0992 87.75 38.8125C87.75 45.5258 85.0832 51.9641 80.3361 56.7111C75.5891 61.4582 69.1508 64.125 62.4375 64.125H40.5V70.875H60.75C62.614 70.875 64.125 72.386 64.125 74.25C64.125 76.114 62.614 77.625 60.75 77.625H40.5V91.125C40.5 92.989 38.989 94.5 37.125 94.5C35.261 94.5 33.75 92.989 33.75 91.125V77.625H23.625C21.761 77.625 20.25 76.114 20.25 74.25C20.25 72.386 21.761 70.875 23.625 70.875H33.75V64.125H23.625C21.761 64.125 20.25 62.614 20.25 60.75C20.25 58.886 21.761 57.375 23.625 57.375H33.75V16.875ZM40.5 57.375H62.4375C67.3606 57.375 72.082 55.4193 75.5632 51.9382C79.0443 48.457 81 43.7356 81 38.8125C81 33.8894 79.0443 29.168 75.5632 25.6868C72.082 22.2057 67.3606 20.25 62.4375 20.25H40.5V57.375Z" fill="#C0FF23"/>
</svg>
