<svg width="18" height="18" viewBox="0 0 18 18" fill="none" xmlns="http://www.w3.org/2000/svg">
<path d="M11.2496 5.625L5.39201 11.5798C5.18103 11.7908 5.0625 12.077 5.0625 12.3753C5.0625 12.6737 5.18103 12.9599 5.39201 13.1708C5.60298 13.3818 5.88913 13.5003 6.1875 13.5003C6.48587 13.5003 6.77202 13.3818 6.983 13.1708L13.9656 6.09099C14.1745 5.88206 14.3402 5.63402 14.4533 5.36104C14.5664 5.08806 14.6246 4.79547 14.6246 4.5C14.6246 4.20453 14.5664 3.91194 14.4533 3.63896C14.3402 3.36598 14.1745 3.11794 13.9656 2.90901C13.7566 2.70008 13.5086 2.53434 13.2356 2.42127C12.9626 2.3082 12.6701 2.25 12.3746 2.25C12.0791 2.25 11.7865 2.3082 11.5136 2.42127C11.2406 2.53434 10.9925 2.70008 10.7836 2.90901L3.80101 9.98886C3.16808 10.6218 2.8125 11.4802 2.8125 12.3753C2.8125 13.2704 3.16808 14.1289 3.80101 14.7618C4.43395 15.3948 5.2924 15.7503 6.1875 15.7503C7.08261 15.7503 7.94105 15.3948 8.57399 14.7618L14.3433 9" stroke="black" stroke-linecap="round" stroke-linejoin="round"/>
</svg>
