<svg width="25" height="24" viewBox="0 0 25 24" fill="none" xmlns="http://www.w3.org/2000/svg">
<path d="M8.79465 11.7014C9.57262 13.2919 10.8619 14.5753 12.4559 15.346C12.5725 15.4013 12.7015 15.4252 12.8302 15.4155C12.9589 15.4058 13.0829 15.3627 13.1898 15.2905L15.5369 13.7254C15.6407 13.6562 15.7602 13.6139 15.8844 13.6025C16.0087 13.5911 16.1338 13.6109 16.2485 13.66L20.6394 15.5419C20.7886 15.6052 20.9131 15.7154 20.9943 15.8556C21.0754 15.9959 21.1088 16.1588 21.0893 16.3197C20.9505 17.4057 20.4206 18.4039 19.5989 19.1273C18.7771 19.8508 17.7198 20.2499 16.625 20.25C13.2435 20.25 10.0005 18.9067 7.60939 16.5156C5.2183 14.1245 3.875 10.8815 3.875 7.49997C3.87506 6.40513 4.27418 5.34786 4.99764 4.5261C5.7211 3.70435 6.71928 3.17448 7.80528 3.03569C7.96617 3.01622 8.12903 3.04956 8.26932 3.1307C8.40961 3.21183 8.51973 3.33636 8.5831 3.48552L10.4666 7.88032C10.5153 7.994 10.5351 8.11796 10.5244 8.24116C10.5136 8.36436 10.4725 8.48299 10.4048 8.58647L8.84511 10.9696C8.77412 11.0768 8.73216 11.2006 8.72331 11.3288C8.71447 11.4571 8.73905 11.5855 8.79465 11.7014V11.7014Z" stroke="#989898" stroke-width="2" stroke-linecap="round" stroke-linejoin="round"/>
</svg>
