<svg width="21" height="20" viewBox="0 0 21 20" fill="none" xmlns="http://www.w3.org/2000/svg">
<path d="M19.25 9.375H14.25V6.25H17.5769C17.7018 6.25 17.8238 6.28743 17.9272 6.35746C18.0307 6.42749 18.1108 6.5269 18.1572 6.64288L19.25 9.375Z" stroke="black" stroke-linecap="round" stroke-linejoin="round"/>
<path d="M1.75 11.25H14.25" stroke="black" stroke-linecap="round" stroke-linejoin="round"/>
<path d="M15.1875 16.875C16.223 16.875 17.0625 16.0355 17.0625 15C17.0625 13.9645 16.223 13.125 15.1875 13.125C14.152 13.125 13.3125 13.9645 13.3125 15C13.3125 16.0355 14.152 16.875 15.1875 16.875Z" stroke="black" stroke-miterlimit="10"/>
<path d="M5.8125 16.875C6.84803 16.875 7.6875 16.0355 7.6875 15C7.6875 13.9645 6.84803 13.125 5.8125 13.125C4.77697 13.125 3.9375 13.9645 3.9375 15C3.9375 16.0355 4.77697 16.875 5.8125 16.875Z" stroke="black" stroke-miterlimit="10"/>
<path d="M13.3125 15H7.6875" stroke="black" stroke-linecap="round" stroke-linejoin="round"/>
<path d="M3.9375 15H2.375C2.20924 15 2.05027 14.9342 1.93306 14.8169C1.81585 14.6997 1.75 14.5408 1.75 14.375V5.625C1.75 5.45924 1.81585 5.30027 1.93306 5.18306C2.05027 5.06585 2.20924 5 2.375 5H14.25V13.3762" stroke="black" stroke-linecap="round" stroke-linejoin="round"/>
<path d="M14.25 13.3762V9.375H19.25V14.375C19.25 14.5408 19.1842 14.6997 19.0669 14.8169C18.9497 14.9342 18.7908 15 18.625 15H17.0625" stroke="black" stroke-linecap="round" stroke-linejoin="round"/>
</svg>
