<svg width="62" height="70" viewBox="0 0 62 70" fill="none" xmlns="http://www.w3.org/2000/svg">
<path d="M36.3125 30.625C36.3125 30.4524 36.1726 30.3125 36 30.3125C35.8274 30.3125 35.6875 30.4524 35.6875 30.625V39.375C35.6875 39.5476 35.8274 39.6875 36 39.6875C36.1726 39.6875 36.3125 39.5476 36.3125 39.375V30.625Z" fill="#989898"/>
<path d="M26 30.3125C26.1726 30.3125 26.3125 30.4524 26.3125 30.625V39.375C26.3125 39.5476 26.1726 39.6875 26 39.6875C25.8274 39.6875 25.6875 39.5476 25.6875 39.375V30.625C25.6875 30.4524 25.8274 30.3125 26 30.3125Z" fill="#989898"/>
<path fill-rule="evenodd" clip-rule="evenodd" d="M1 0.3125C0.827411 0.3125 0.6875 0.452411 0.6875 0.625V69.375C0.6875 69.5476 0.827411 69.6875 1 69.6875H61C61.1726 69.6875 61.3125 69.5476 61.3125 69.375V0.625C61.3125 0.452411 61.1726 0.3125 61 0.3125H1ZM31.3125 0.9375V69.0625H60.6875V0.9375H31.3125ZM30.6875 0.9375H1.3125V69.0625H30.6875V0.9375Z" fill="#989898"/>
</svg>
