<svg width="401" height="254" viewBox="0 0 401 254" fill="none" xmlns="http://www.w3.org/2000/svg">
<path d="M234.281 2.26807H398.714V179.161H234.281V2.26807Z" stroke="#CACACA" stroke-width="1.5" stroke-linecap="round" stroke-linejoin="round"/>
<path d="M298.227 197.304V215.447" stroke="#CACACA" stroke-width="1.5" stroke-linecap="round" stroke-linejoin="round"/>
<path d="M334.766 197.304V215.447" stroke="#CACACA" stroke-width="1.5" stroke-linecap="round" stroke-linejoin="round"/>
<path d="M316.496 179.161V251.732" stroke="#CACACA" stroke-width="1.5" stroke-linecap="round" stroke-linejoin="round"/>
<path d="M321.066 11.3398H389.58V170.09H321.066V11.3398Z" stroke="#CACACA" stroke-width="1.5" stroke-linecap="round" stroke-linejoin="round"/>
<path d="M311.928 124.732H243.414" stroke="#CACACA" stroke-width="1.5" stroke-linecap="round" stroke-linejoin="round"/>
<path d="M311.928 147.411H243.414" stroke="#CACACA" stroke-width="1.5" stroke-linecap="round" stroke-linejoin="round"/>
<path d="M311.928 34.0181H243.414" stroke="#CACACA" stroke-width="1.5" stroke-linecap="round" stroke-linejoin="round"/>
<path d="M311.928 56.6963H243.414" stroke="#CACACA" stroke-width="1.5" stroke-linecap="round" stroke-linejoin="round"/>
<path d="M311.928 79.3755H243.414" stroke="#CACACA" stroke-width="1.5" stroke-linecap="round" stroke-linejoin="round"/>
<path d="M311.928 102.054H243.414" stroke="#CACACA" stroke-width="1.5" stroke-linecap="round" stroke-linejoin="round"/>
<path d="M243.414 11.3398H311.928V170.09H243.414V11.3398Z" stroke="#CACACA" stroke-width="1.5" stroke-linecap="round" stroke-linejoin="round"/>
<path d="M234.281 179.161H398.714V251.732H234.281V179.161Z" stroke="#CACACA" stroke-width="1.5" stroke-linecap="round" stroke-linejoin="round"/>
<g clip-path="url(#clip0_519_8554)">
<path d="M13.7665 81.5537H38.2371L50.4724 128.161H1.53125L13.7665 81.5537Z" stroke="#CACACA" stroke-width="1.5" stroke-linecap="round" stroke-linejoin="round"/>
<path d="M47.4136 117.286H4.59009" stroke="#CACACA" stroke-width="1.5" stroke-linecap="round" stroke-linejoin="round"/>
<path d="M24.4724 128.161V240.018H27.5312V128.161H24.4724Z" stroke="#CACACA" stroke-width="1.5" stroke-linecap="round" stroke-linejoin="round"/>
<path d="M1.53125 248.018C1.53125 243.6 5.11297 240.018 9.53125 240.018H42.4724C46.8907 240.018 50.4724 243.6 50.4724 248.018V250.447C50.4724 251.551 49.577 252.447 48.4724 252.447H3.53125C2.42668 252.447 1.53125 251.551 1.53125 250.447V248.018Z" stroke="#CACACA" stroke-width="1.5" stroke-linecap="round" stroke-linejoin="round"/>
</g>
<g clip-path="url(#clip1_519_8554)">
<path d="M216.68 160.319L87.3203 160.319" stroke="#CACACA" stroke-width="1.5" stroke-linecap="round" stroke-linejoin="round"/>
<path d="M213.041 160.319C213.593 160.319 214.041 160.767 214.041 161.319V188.347C214.041 188.899 213.593 189.347 213.041 189.347L90.9609 189.347C90.4087 189.347 89.9609 188.899 89.9609 188.347L89.9609 161.319C89.9609 160.767 90.4087 160.319 90.9609 160.319L213.041 160.319Z" stroke="#CACACA" stroke-width="1.5" stroke-linecap="round" stroke-linejoin="round"/>
<path d="M213.041 189.347C213.593 189.347 214.041 189.795 214.041 190.347V217.375C214.041 217.927 213.593 218.375 213.041 218.375L90.9609 218.375C90.4087 218.375 89.9609 217.927 89.9609 217.375L89.9609 190.347C89.9609 189.795 90.4087 189.347 90.9609 189.347L213.041 189.347Z" stroke="#CACACA" stroke-width="1.5" stroke-linecap="round" stroke-linejoin="round"/>
<path d="M203.481 247.403V251.681C203.481 252.233 203.034 252.681 202.481 252.681L191.281 252.681C190.729 252.681 190.281 252.233 190.281 251.681L190.281 247.403L203.481 247.403Z" stroke="#CACACA" stroke-width="1.5" stroke-linecap="round" stroke-linejoin="round"/>
<path d="M113.72 247.403V251.681C113.72 252.233 113.272 252.681 112.72 252.681L101.52 252.681C100.967 252.681 100.52 252.233 100.52 251.681L100.52 247.403L113.72 247.403Z" stroke="#CACACA" stroke-width="1.5" stroke-linecap="round" stroke-linejoin="round"/>
<path d="M213.041 218.375C213.593 218.375 214.041 218.823 214.041 219.375V246.403C214.041 246.955 213.593 247.403 213.041 247.403L90.9609 247.403C90.4087 247.403 89.9609 246.955 89.9609 246.403L89.9609 219.375C89.9609 218.823 90.4087 218.375 90.9609 218.375L213.041 218.375Z" stroke="#CACACA" stroke-width="1.5" stroke-linecap="round" stroke-linejoin="round"/>
<path d="M191.599 228.931L181.039 228.931" stroke="#CACACA" stroke-width="1.5" stroke-linecap="round" stroke-linejoin="round"/>
<path d="M191.599 199.903L181.039 199.903" stroke="#CACACA" stroke-width="1.5" stroke-linecap="round" stroke-linejoin="round"/>
<path d="M191.599 170.875L181.039 170.875" stroke="#CACACA" stroke-width="1.5" stroke-linecap="round" stroke-linejoin="round"/>
<path d="M122.958 228.931L112.398 228.931" stroke="#CACACA" stroke-width="1.5" stroke-linecap="round" stroke-linejoin="round"/>
<path d="M122.958 199.903L112.398 199.903" stroke="#CACACA" stroke-width="1.5" stroke-linecap="round" stroke-linejoin="round"/>
<path d="M122.958 170.875L112.398 170.875" stroke="#CACACA" stroke-width="1.5" stroke-linecap="round" stroke-linejoin="round"/>
</g>
<defs>
<clipPath id="clip0_519_8554">
<rect width="52" height="174" fill="white" transform="translate(0 80)"/>
</clipPath>
<clipPath id="clip1_519_8554">
<rect width="132" height="95" fill="white" transform="translate(86 159)"/>
</clipPath>
</defs>
</svg>
