<svg width="164" height="45" viewBox="0 0 164 45" fill="none" xmlns="http://www.w3.org/2000/svg">
<path d="M10.4952 14.9067H0V43.2372H10.4952V14.9067Z" fill="#E0E0E0"/>
<path d="M34.5512 43.2373V27.5694C34.5512 24.6442 32.9779 23.5222 30.4686 23.5222C28.0788 23.5222 26.8441 24.7443 25.9878 25.7461V43.2373H15.4727V14.9068H25.9679V18.1326C27.6009 16.2492 30.6877 14.2056 35.6465 14.2056C42.1787 14.2056 45.0265 18.1927 45.0265 23.1214V43.2373H34.5512Z" fill="#E0E0E0"/>
<path d="M49.9453 35.0225V4.10742H55.2626H60.4405V14.9067H66.1561V24.063H60.4405V31.9771C60.4405 33.4397 61.3765 34.6218 62.7706 34.6218C63.7066 34.6218 64.6426 34.3212 64.8617 34.1008L66.7337 42.075C65.6184 43.0768 63.1689 43.9584 59.624 43.9584C53.3906 43.9384 49.9453 40.953 49.9453 35.0225Z" fill="#E0E0E0"/>
<path d="M68.9844 29.031C68.9844 20.5158 75.2178 13.6436 84.3189 13.6436C92.6035 13.6436 98.9564 19.8546 98.9564 30.193V32.4571H79.838C80.4156 34.3404 82.4668 36.1637 85.9121 36.1637C87.4854 36.1637 90.9904 35.3823 92.3845 34.1L96.706 40.852C93.898 43.3565 88.8993 44.4985 84.6973 44.4985C75.875 44.4985 68.9844 38.7082 68.9844 29.031ZM84.3388 21.9784C81.1325 21.9784 80.077 24.1623 79.7385 25.5047H89.0188C88.7002 24.2224 87.7044 21.9784 84.3388 21.9784Z" fill="#E0E0E0"/>
<path d="M120.249 43.2371L115.409 33.5198L113.378 35.7037V43.2371H102.883V4.10742H113.378V22.7206L119.85 14.9067H132.496L123.097 25.8261L133.134 43.2371H120.249Z" fill="#E0E0E0"/>
<path d="M10.4788 10.5989H0.0234375V3.54632L5.26108 0L10.4788 3.54632V10.5989Z" fill="#E0E0E0"/>
<path d="M148.168 13.1436C139.426 13.1436 132.336 20.2763 132.336 29.0719C132.336 37.8676 139.426 45.0003 148.168 45.0003C156.911 45.0003 164.001 37.8676 164.001 29.0719C164.001 20.2763 156.911 13.1436 148.168 13.1436ZM148.168 35.4233C144.683 35.4233 141.855 32.5782 141.855 29.0719C141.855 25.5657 144.683 22.7206 148.168 22.7206C151.653 22.7206 154.481 25.5657 154.481 29.0719C154.481 32.5782 151.653 35.4233 148.168 35.4233Z" fill="#E0E0E0"/>
</svg>
