<svg width="147" height="40" viewBox="0 0 147 40" fill="none" xmlns="http://www.w3.org/2000/svg">
<path d="M9.34329 13.25H0V38.4326H9.34329V13.25Z" fill="black"/>
<path d="M30.758 38.4329V24.5059C30.758 21.9057 29.3574 20.9084 27.1235 20.9084C24.996 20.9084 23.8968 21.9947 23.1345 22.8852V38.4329H13.7734V13.2503H23.1167V16.1176C24.5705 14.4435 27.3185 12.627 31.7331 12.627C37.5483 12.627 40.0836 16.171 40.0836 20.5522V38.4329H30.758Z" fill="black"/>
<path d="M44.4648 31.1304V3.65039H49.1985H53.8081V13.2497H58.8964V21.3886H53.8081V28.4234C53.8081 29.7235 54.6414 30.7743 55.8825 30.7743C56.7157 30.7743 57.549 30.5071 57.744 30.3112L59.4106 37.3994C58.4177 38.2899 56.237 39.0735 53.0812 39.0735C47.532 39.0557 44.4648 36.4021 44.4648 31.1304Z" fill="black"/>
<path d="M61.4141 25.8056C61.4141 18.2366 66.9633 12.1279 75.0655 12.1279C82.4409 12.1279 88.0965 17.6489 88.0965 26.8386V28.851H71.0765C71.5906 30.5251 73.4167 32.1458 76.4839 32.1458C77.8845 32.1458 81.0048 31.4512 82.2458 30.3114L86.0931 36.3132C83.5933 38.5394 79.1432 39.5546 75.4024 39.5546C67.5484 39.5546 61.4141 34.4076 61.4141 25.8056ZM75.0833 19.5367C72.2289 19.5367 71.2892 21.4779 70.9878 22.6712H79.2496C78.9659 21.5313 78.0795 19.5367 75.0833 19.5367Z" fill="black"/>
<path d="M107.05 38.4323L102.742 29.7947L100.933 31.736V38.4323H91.5898V3.65039H100.933V20.1954L106.695 13.2497H117.953L109.585 22.9559L118.521 38.4323H107.05Z" fill="black"/>
<path d="M9.32736 9.42122H0.0195312V3.15228L4.68231 0L9.32736 3.15228V9.42122Z" fill="url(#paint0_radial_519_8625)"/>
<path d="M131.907 11.6826C124.124 11.6826 117.812 18.0228 117.812 25.8412C117.812 33.6596 124.124 39.9997 131.907 39.9997C139.69 39.9997 146.002 33.6596 146.002 25.8412C146.002 18.0228 139.69 11.6826 131.907 11.6826ZM131.907 31.4868C128.805 31.4868 126.287 28.9578 126.287 25.8412C126.287 22.7245 128.805 20.1956 131.907 20.1956C135.01 20.1956 137.527 22.7245 137.527 25.8412C137.527 28.9578 135.01 31.4868 131.907 31.4868Z" fill="black"/>
<defs>
<radialGradient id="paint0_radial_519_8625" cx="0" cy="0" r="1" gradientUnits="userSpaceOnUse" gradientTransform="translate(7.99321 1.83408) scale(8.52762 8.56689)">
<stop stop-color="#9AD800"/>
<stop offset="0.14" stop-color="#8BD000"/>
<stop offset="0.41" stop-color="#65BB00"/>
<stop offset="0.77" stop-color="#299A00"/>
<stop offset="1" stop-color="#008400"/>
</radialGradient>
</defs>
</svg>
