<svg width="147" height="42" viewBox="0 0 147 42" fill="none" xmlns="http://www.w3.org/2000/svg">
<path fill-rule="evenodd" clip-rule="evenodd" d="M4.05064 12.1545C-1.35021 15.8636 -1.35022 25.1364 4.05063 28.8455L19.8481 39.6946C25.2489 43.4037 32 38.7673 32 31.3491V9.6509C32 2.2327 25.249 -2.40367 19.8481 1.30542L4.05064 12.1545ZM18.5 24C20.433 24 22 22.433 22 20.5C22 18.567 20.433 17 18.5 17C16.567 17 15 18.567 15 20.5C15 22.433 16.567 24 18.5 24Z" fill="white"/>
<path d="M24 0H143C145.209 0 147 1.79086 147 4V38C147 40.2091 145.209 42 143 42H24V0Z" fill="white"/>
</svg>
