<svg xmlns="http://www.w3.org/2000/svg" xmlns:xlink="http://www.w3.org/1999/xlink"><defs><radialGradient id="paint0_radial_519_9331" cx="0" cy="0" r="1" gradientUnits="userSpaceOnUse" gradientTransform="matrix(32.9824 0 0 40.01 34.84 8.566)"><stop stop-color="#9AD800"/><stop offset=".14" stop-color="#8BD000"/><stop offset=".41" stop-color="#65BB00"/><stop offset=".77" stop-color="#299A00"/><stop offset="1" stop-color="#008400"/></radialGradient></defs><symbol id="arrow-left" viewBox="0 0 20 20"><path d="M16.875 10H3.125M8.75 4.375L3.125 10l5.625 5.625" stroke-linecap="round" stroke-linejoin="round"/></symbol><symbol id="book" viewBox="0 0 25 24"><path d="M5.375 21a2.25 2.25 0 012.25-2.25h12.75V3H7.625a2.25 2.25 0 00-2.25 2.25V21zM5.375 21v.75h13.5" stroke-width="2" stroke-linecap="round" stroke-linejoin="round"/></symbol><symbol id="bx-trash" viewBox="0 0 24 24"><path d="M5 20a2 2 0 002 2h10a2 2 0 002-2V8h2V6h-4V4a2 2 0 00-2-2H9a2 2 0 00-2 2v2H3v2h2zM9 4h6v2H9zM8 8h9v12H7V8z"/><path d="M9 10h2v8H9zm4 0h2v8h-2z"/></symbol><symbol id="caret-right" viewBox="0 0 80 80"><path d="M30 15l25 25-25 25"/></symbol><symbol id="check" viewBox="0 0 13 10"><path d="M10.352 0L4.244 6.204 1.867 3.793 0 5.689 4.244 10l7.978-8.104L10.352 0z"/></symbol><symbol id="clock" viewBox="0 0 20 20"><path d="M10 17.5a7.5 7.5 0 100-15 7.5 7.5 0 000 15z" stroke-miterlimit="10"/><path d="M10 5.625V10h4.375" stroke-linecap="round" stroke-linejoin="round"/></symbol><symbol id="crop" viewBox="0 0 20 20"><path d="M4.374 4.375H1.25M4.375 1.25v14.375H18.75" stroke-linecap="round" stroke-linejoin="round"/><path d="M15.625 13.125v-8.75h-8.75M15.625 18.75v-3.125" stroke-linecap="round" stroke-linejoin="round"/></symbol><symbol id="CurrencyRub" viewBox="0 0 108 108"><path fill-rule="evenodd" clip-rule="evenodd" d="M33.75 16.875a3.375 3.375 0 013.375-3.375h25.313a25.312 25.312 0 110 50.625H40.5v6.75h20.25a3.375 3.375 0 110 6.75H40.5v13.5a3.375 3.375 0 11-6.75 0v-13.5H23.625a3.375 3.375 0 110-6.75H33.75v-6.75H23.625a3.375 3.375 0 110-6.75H33.75v-40.5zm6.75 40.5h21.938a18.563 18.563 0 000-37.125H40.5v37.125z"/></symbol><symbol id="file-text" viewBox="0 0 32 32"><path d="M25 28H6.999a1 1 0 01-1-1V5a1 1 0 011-1H19l7 7v16a1.001 1.001 0 01-1 1z" stroke-linecap="round" stroke-linejoin="round"/><path d="M19 4v7h7.001M12 17h8M12 21h8" stroke-linecap="round" stroke-linejoin="round"/></symbol><symbol id="magnifyingGlass" viewBox="0 0 25 24"><path d="M11.25 18.75a7.875 7.875 0 100-15.75 7.875 7.875 0 000 15.75zM16.818 16.443L21.374 21" stroke-width="2" stroke-linecap="round" stroke-linejoin="round"/></symbol><symbol id="map-pin" viewBox="0 0 44 44"><path d="M40 16.923C40 32.153 22 44 22 44S4 32.154 4 16.923C4 12.435 5.896 8.13 9.272 4.957 12.648 1.783 17.226 0 22 0s9.352 1.783 12.728 4.957C38.104 8.13 40 12.435 40 16.923z"/><path d="M32 26H12V12.692L22.019 6 32 12.692V26z"/></symbol><symbol id="notePencil" viewBox="0 0 25 24"><path d="M12.625 15h-3v-3l9-9 3 3-9 9zM16.375 5.25l3 3" stroke-width="2" stroke-linecap="round" stroke-linejoin="round"/><path d="M20.875 11.25v8.25a.75.75 0 01-.75.75h-15a.75.75 0 01-.75-.75v-15a.75.75 0 01.75-.75h8.25" stroke-width="2" stroke-linecap="round" stroke-linejoin="round"/></symbol><symbol id="paperclip" viewBox="0 0 18 18"><path d="M11.25 5.625L5.392 11.58a1.125 1.125 0 001.591 1.59l6.983-7.079a2.25 2.25 0 00-3.182-3.182L3.8 9.989a3.375 3.375 0 104.773 4.773L14.344 9" stroke-linecap="round" stroke-linejoin="round"/></symbol><symbol id="phone" viewBox="0 0 25 24"><path d="M8.795 11.701a7.908 7.908 0 003.66 3.645.743.743 0 00.735-.056l2.347-1.565a.75.75 0 01.711-.065l4.391 1.882a.748.748 0 01.45.778 4.5 4.5 0 01-4.464 3.93A12.75 12.75 0 013.875 7.5a4.5 4.5 0 013.93-4.464.747.747 0 01.778.45l1.884 4.394a.751.751 0 01-.062.706l-1.56 2.384a.743.743 0 00-.05.731v0z" stroke-width="2" stroke-linecap="round" stroke-linejoin="round"/></symbol><symbol id="truck" viewBox="0 0 21 20"><path d="M19.25 9.375h-5V6.25h3.327a.625.625 0 01.58.393l1.093 2.732zM1.75 11.25h12.5" stroke-linecap="round" stroke-linejoin="round"/><path d="M15.188 16.875a1.875 1.875 0 100-3.75 1.875 1.875 0 000 3.75zM5.813 16.875a1.875 1.875 0 100-3.75 1.875 1.875 0 000 3.75z" stroke-miterlimit="10"/><path d="M13.313 15H7.686M3.938 15H2.375a.625.625 0 01-.625-.625v-8.75A.625.625 0 012.375 5H14.25v8.376M14.25 13.376V9.375h5v5a.624.624 0 01-.625.625h-1.563" stroke-linecap="round" stroke-linejoin="round"/></symbol><symbol id="wardrobe2" viewBox="0 0 62 70"><path d="M36.313 30.625a.312.312 0 10-.626 0v8.75a.312.312 0 10.626 0v-8.75zM26 30.313c.173 0 .313.14.313.312v8.75a.312.312 0 11-.625 0v-8.75c0-.173.14-.313.312-.313z"/><path fill-rule="evenodd" clip-rule="evenodd" d="M1 .313a.312.312 0 00-.313.312v68.75c0 .173.14.313.313.313h60c.173 0 .313-.14.313-.313V.625A.312.312 0 0061 .312H1zm30.313.625v68.124h29.375V.939H31.311zm-.625 0H1.313v68.124h29.375V.939z"/></symbol><symbol id="warning-circle" viewBox="0 0 25 24"><path d="M12.5 21a9 9 0 100-18 9 9 0 000 18z" stroke-width="2" stroke-miterlimit="10"/><path d="M12.5 7.5v5.25" stroke-width="2" stroke-linecap="round" stroke-linejoin="round"/><path d="M12.5 17.25a1.125 1.125 0 100-2.25 1.125 1.125 0 000 2.25z"/></symbol><symbol id="x" viewBox="0 0 20 20"><path d="M15.625 4.375l-11.25 11.25M15.625 15.625L4.375 4.375" stroke-linecap="round" stroke-linejoin="round"/></symbol></svg>